<mxfile host="app.diagrams.net" modified="2023-10-19T06:28:01.196Z" agent="Mozilla/5.0 (X11; Linux x86_64) AppleWebKit/537.36 (KHTML, like Gecko) Chrome/118.0.0.0 Safari/537.36" version="22.0.5" etag="JeFeepArrERPkU9VV8Ox" type="github">
  <diagram name="Page-1" id="fpA7u3cJ1V1l5V3-h3OE">
    <mxGraphModel>
      <root>
        <mxCell id="0" />
        <mxCell id="1" parent="0" />
      </root>
    </mxGraphModel>
  </diagram>
</mxfile>
